<mxfile host="app.diagrams.net" agent="Mozilla/5.0 (X11; Linux x86_64) AppleWebKit/537.36 (KHTML, like Gecko) Chrome/137.0.0.0 Safari/537.36" version="28.0.3">
  <diagram name="Page-1" id="N021aGu-AKvFgic0BwEk">
    <mxGraphModel dx="4077" dy="2308" grid="1" gridSize="10" guides="1" tooltips="1" connect="1" arrows="1" fold="1" page="1" pageScale="1" pageWidth="850" pageHeight="1100" math="0" shadow="0">
      <root>
        <mxCell id="0" />
        <mxCell id="1" parent="0" />
        <mxCell id="mXFOX9HHiZyfyobsmAWa-28" value="" style="rounded=0;whiteSpace=wrap;html=1;fillColor=#f5f5f5;fontColor=#333333;strokeColor=#666666;" vertex="1" parent="1">
          <mxGeometry x="180" y="-255" width="680" height="1205" as="geometry" />
        </mxCell>
        <mxCell id="mXFOX9HHiZyfyobsmAWa-26" value="" style="rounded=0;whiteSpace=wrap;html=1;fillColor=#f5f5f5;fontColor=#333333;strokeColor=#666666;" vertex="1" parent="1">
          <mxGeometry x="-540" y="-255" width="680" height="1205" as="geometry" />
        </mxCell>
        <mxCell id="mXFOX9HHiZyfyobsmAWa-25" value="" style="rounded=0;whiteSpace=wrap;html=1;fillColor=#f5f5f5;fontColor=#333333;strokeColor=#666666;" vertex="1" parent="1">
          <mxGeometry x="-1450" y="-255" width="870" height="1205" as="geometry" />
        </mxCell>
        <mxCell id="fI0QzikxHXBN_HiKX2P5-3" style="edgeStyle=orthogonalEdgeStyle;rounded=0;orthogonalLoop=1;jettySize=auto;html=1;entryX=0;entryY=0.5;entryDx=0;entryDy=0;fontFamily=Helvetica;fontSize=16;fontColor=default;fontStyle=1;horizontal=0;strokeWidth=3;" parent="1" source="fI0QzikxHXBN_HiKX2P5-1" target="fI0QzikxHXBN_HiKX2P5-2" edge="1">
          <mxGeometry relative="1" as="geometry" />
        </mxCell>
        <mxCell id="fI0QzikxHXBN_HiKX2P5-1" value="Service - LoadBalancer" style="rounded=0;whiteSpace=wrap;html=1;horizontal=0;fontSize=16;fontStyle=1;strokeWidth=4;" parent="1" vertex="1">
          <mxGeometry x="190" y="200" width="90" height="240" as="geometry" />
        </mxCell>
        <mxCell id="fI0QzikxHXBN_HiKX2P5-5" style="edgeStyle=orthogonalEdgeStyle;shape=connector;rounded=0;orthogonalLoop=1;jettySize=auto;html=1;entryX=0;entryY=0.5;entryDx=0;entryDy=0;strokeColor=default;strokeWidth=3;align=center;verticalAlign=middle;fontFamily=Helvetica;fontSize=16;fontColor=default;fontStyle=1;labelBackgroundColor=default;horizontal=0;endArrow=classic;exitX=0.5;exitY=0;exitDx=0;exitDy=0;" parent="1" source="fI0QzikxHXBN_HiKX2P5-2" target="fI0QzikxHXBN_HiKX2P5-4" edge="1">
          <mxGeometry relative="1" as="geometry" />
        </mxCell>
        <mxCell id="fI0QzikxHXBN_HiKX2P5-7" style="edgeStyle=orthogonalEdgeStyle;shape=connector;rounded=0;orthogonalLoop=1;jettySize=auto;html=1;entryX=0;entryY=0.5;entryDx=0;entryDy=0;strokeColor=default;strokeWidth=3;align=center;verticalAlign=middle;fontFamily=Helvetica;fontSize=16;fontColor=default;fontStyle=1;labelBackgroundColor=default;horizontal=0;endArrow=classic;" parent="1" source="fI0QzikxHXBN_HiKX2P5-2" target="fI0QzikxHXBN_HiKX2P5-6" edge="1">
          <mxGeometry relative="1" as="geometry" />
        </mxCell>
        <mxCell id="fI0QzikxHXBN_HiKX2P5-9" style="edgeStyle=orthogonalEdgeStyle;shape=connector;rounded=0;orthogonalLoop=1;jettySize=auto;html=1;entryX=0;entryY=0.5;entryDx=0;entryDy=0;strokeColor=default;strokeWidth=3;align=center;verticalAlign=middle;fontFamily=Helvetica;fontSize=16;fontColor=default;fontStyle=1;labelBackgroundColor=default;horizontal=0;endArrow=classic;exitX=0.5;exitY=1;exitDx=0;exitDy=0;" parent="1" source="fI0QzikxHXBN_HiKX2P5-2" target="fI0QzikxHXBN_HiKX2P5-8" edge="1">
          <mxGeometry relative="1" as="geometry" />
        </mxCell>
        <mxCell id="fI0QzikxHXBN_HiKX2P5-2" value="Deployment" style="rounded=0;whiteSpace=wrap;html=1;horizontal=0;fontSize=16;fontStyle=1;strokeWidth=4;fillColor=#e1d5e7;strokeColor=#9673a6;" parent="1" vertex="1">
          <mxGeometry x="350" y="200" width="90" height="240" as="geometry" />
        </mxCell>
        <mxCell id="jbF-vzdQm0dqfadRotZ0-3" style="edgeStyle=orthogonalEdgeStyle;shape=link;rounded=0;orthogonalLoop=1;jettySize=auto;html=1;entryX=0;entryY=0.5;entryDx=0;entryDy=0;strokeColor=default;strokeWidth=3;align=center;verticalAlign=middle;fontFamily=Helvetica;fontSize=16;fontColor=default;fontStyle=1;labelBackgroundColor=default;horizontal=0;endArrow=classic;" parent="1" source="fI0QzikxHXBN_HiKX2P5-4" target="jbF-vzdQm0dqfadRotZ0-1" edge="1">
          <mxGeometry relative="1" as="geometry" />
        </mxCell>
        <mxCell id="fI0QzikxHXBN_HiKX2P5-4" value="POD" style="rounded=0;whiteSpace=wrap;html=1;horizontal=0;fontSize=16;fontStyle=1;strokeWidth=4;fillColor=#ffe6cc;strokeColor=#d79b00;" parent="1" vertex="1">
          <mxGeometry x="520" y="-110" width="90" height="240" as="geometry" />
        </mxCell>
        <mxCell id="jbF-vzdQm0dqfadRotZ0-5" style="edgeStyle=orthogonalEdgeStyle;shape=link;rounded=0;orthogonalLoop=1;jettySize=auto;html=1;entryX=0;entryY=0.5;entryDx=0;entryDy=0;strokeColor=default;strokeWidth=3;align=center;verticalAlign=middle;fontFamily=Helvetica;fontSize=16;fontColor=default;fontStyle=1;labelBackgroundColor=default;horizontal=0;endArrow=classic;" parent="1" source="fI0QzikxHXBN_HiKX2P5-6" target="jbF-vzdQm0dqfadRotZ0-4" edge="1">
          <mxGeometry relative="1" as="geometry" />
        </mxCell>
        <mxCell id="fI0QzikxHXBN_HiKX2P5-6" value="POD" style="rounded=0;whiteSpace=wrap;html=1;horizontal=0;fontSize=16;fontStyle=1;strokeWidth=4;fillColor=#ffe6cc;strokeColor=#d79b00;" parent="1" vertex="1">
          <mxGeometry x="520" y="200" width="90" height="240" as="geometry" />
        </mxCell>
        <mxCell id="jbF-vzdQm0dqfadRotZ0-7" style="edgeStyle=orthogonalEdgeStyle;shape=link;rounded=0;orthogonalLoop=1;jettySize=auto;html=1;entryX=0;entryY=0.5;entryDx=0;entryDy=0;strokeColor=default;strokeWidth=3;align=center;verticalAlign=middle;fontFamily=Helvetica;fontSize=16;fontColor=default;fontStyle=1;labelBackgroundColor=default;horizontal=0;endArrow=classic;" parent="1" source="fI0QzikxHXBN_HiKX2P5-8" target="jbF-vzdQm0dqfadRotZ0-6" edge="1">
          <mxGeometry relative="1" as="geometry" />
        </mxCell>
        <mxCell id="fI0QzikxHXBN_HiKX2P5-8" value="POD" style="rounded=0;whiteSpace=wrap;html=1;horizontal=0;fontSize=16;fontStyle=1;strokeWidth=4;fillColor=#ffe6cc;strokeColor=#d79b00;" parent="1" vertex="1">
          <mxGeometry x="520" y="510" width="90" height="240" as="geometry" />
        </mxCell>
        <mxCell id="fI0QzikxHXBN_HiKX2P5-22" style="edgeStyle=orthogonalEdgeStyle;shape=connector;rounded=0;orthogonalLoop=1;jettySize=auto;html=1;entryX=1;entryY=0.5;entryDx=0;entryDy=0;strokeColor=default;strokeWidth=3;align=center;verticalAlign=middle;fontFamily=Helvetica;fontSize=16;fontColor=default;fontStyle=1;labelBackgroundColor=default;horizontal=0;endArrow=classic;exitX=0.5;exitY=0;exitDx=0;exitDy=0;dashed=1;" parent="1" source="fI0QzikxHXBN_HiKX2P5-1" target="mXFOX9HHiZyfyobsmAWa-1" edge="1">
          <mxGeometry relative="1" as="geometry" />
        </mxCell>
        <mxCell id="fI0QzikxHXBN_HiKX2P5-23" style="edgeStyle=orthogonalEdgeStyle;shape=connector;rounded=0;orthogonalLoop=1;jettySize=auto;html=1;entryX=1;entryY=0.5;entryDx=0;entryDy=0;strokeColor=default;strokeWidth=3;align=center;verticalAlign=middle;fontFamily=Helvetica;fontSize=16;fontColor=default;fontStyle=1;labelBackgroundColor=default;horizontal=0;endArrow=classic;dashed=1;exitX=0;exitY=0.5;exitDx=0;exitDy=0;" parent="1" source="fI0QzikxHXBN_HiKX2P5-1" target="mXFOX9HHiZyfyobsmAWa-2" edge="1">
          <mxGeometry relative="1" as="geometry">
            <mxPoint x="120" y="320" as="sourcePoint" />
          </mxGeometry>
        </mxCell>
        <mxCell id="fI0QzikxHXBN_HiKX2P5-16" style="edgeStyle=orthogonalEdgeStyle;shape=connector;rounded=0;orthogonalLoop=1;jettySize=auto;html=1;entryX=0;entryY=0.5;entryDx=0;entryDy=0;strokeColor=default;strokeWidth=3;align=center;verticalAlign=middle;fontFamily=Helvetica;fontSize=16;fontColor=default;fontStyle=1;labelBackgroundColor=default;horizontal=0;endArrow=classic;" parent="1" source="fI0QzikxHXBN_HiKX2P5-12" target="fI0QzikxHXBN_HiKX2P5-14" edge="1">
          <mxGeometry relative="1" as="geometry" />
        </mxCell>
        <mxCell id="fI0QzikxHXBN_HiKX2P5-12" value="Service - LoadBalancer" style="rounded=0;whiteSpace=wrap;html=1;horizontal=0;fontSize=16;fontStyle=1;strokeWidth=4;" parent="1" vertex="1">
          <mxGeometry x="-510" y="200" width="90" height="240" as="geometry" />
        </mxCell>
        <mxCell id="mXFOX9HHiZyfyobsmAWa-7" style="edgeStyle=orthogonalEdgeStyle;rounded=0;orthogonalLoop=1;jettySize=auto;html=1;entryX=0;entryY=0.5;entryDx=0;entryDy=0;shape=link;strokeWidth=3;" edge="1" parent="1" source="fI0QzikxHXBN_HiKX2P5-13" target="mXFOX9HHiZyfyobsmAWa-2">
          <mxGeometry relative="1" as="geometry" />
        </mxCell>
        <mxCell id="fI0QzikxHXBN_HiKX2P5-13" value="POD" style="rounded=0;whiteSpace=wrap;html=1;horizontal=0;fontSize=16;fontStyle=1;strokeWidth=4;fillColor=#ffe6cc;strokeColor=#d79b00;" parent="1" vertex="1">
          <mxGeometry x="-190" y="200" width="90" height="240" as="geometry" />
        </mxCell>
        <mxCell id="fI0QzikxHXBN_HiKX2P5-15" style="edgeStyle=orthogonalEdgeStyle;shape=connector;rounded=0;orthogonalLoop=1;jettySize=auto;html=1;entryX=0;entryY=0.5;entryDx=0;entryDy=0;strokeColor=default;strokeWidth=3;align=center;verticalAlign=middle;fontFamily=Helvetica;fontSize=16;fontColor=default;fontStyle=1;labelBackgroundColor=default;horizontal=0;endArrow=classic;" parent="1" source="fI0QzikxHXBN_HiKX2P5-14" target="fI0QzikxHXBN_HiKX2P5-13" edge="1">
          <mxGeometry relative="1" as="geometry" />
        </mxCell>
        <mxCell id="fI0QzikxHXBN_HiKX2P5-19" style="edgeStyle=orthogonalEdgeStyle;shape=connector;rounded=0;orthogonalLoop=1;jettySize=auto;html=1;entryX=0;entryY=0.5;entryDx=0;entryDy=0;strokeColor=default;strokeWidth=3;align=center;verticalAlign=middle;fontFamily=Helvetica;fontSize=16;fontColor=default;fontStyle=1;labelBackgroundColor=default;horizontal=0;endArrow=classic;exitX=0.5;exitY=1;exitDx=0;exitDy=0;" parent="1" source="fI0QzikxHXBN_HiKX2P5-14" target="fI0QzikxHXBN_HiKX2P5-18" edge="1">
          <mxGeometry relative="1" as="geometry" />
        </mxCell>
        <mxCell id="fI0QzikxHXBN_HiKX2P5-20" style="edgeStyle=orthogonalEdgeStyle;shape=connector;rounded=0;orthogonalLoop=1;jettySize=auto;html=1;entryX=0;entryY=0.5;entryDx=0;entryDy=0;strokeColor=default;strokeWidth=3;align=center;verticalAlign=middle;fontFamily=Helvetica;fontSize=16;fontColor=default;fontStyle=1;labelBackgroundColor=default;horizontal=0;endArrow=classic;exitX=0.5;exitY=0;exitDx=0;exitDy=0;" parent="1" source="fI0QzikxHXBN_HiKX2P5-14" target="fI0QzikxHXBN_HiKX2P5-17" edge="1">
          <mxGeometry relative="1" as="geometry" />
        </mxCell>
        <mxCell id="fI0QzikxHXBN_HiKX2P5-14" value="Deployment" style="rounded=0;whiteSpace=wrap;html=1;horizontal=0;fontSize=16;fontStyle=1;strokeWidth=4;fillColor=#e1d5e7;strokeColor=#9673a6;" parent="1" vertex="1">
          <mxGeometry x="-350" y="200" width="90" height="240" as="geometry" />
        </mxCell>
        <mxCell id="mXFOX9HHiZyfyobsmAWa-6" style="edgeStyle=orthogonalEdgeStyle;rounded=0;orthogonalLoop=1;jettySize=auto;html=1;entryX=0;entryY=0.5;entryDx=0;entryDy=0;shape=link;strokeWidth=3;" edge="1" parent="1" source="fI0QzikxHXBN_HiKX2P5-17" target="mXFOX9HHiZyfyobsmAWa-1">
          <mxGeometry relative="1" as="geometry" />
        </mxCell>
        <mxCell id="fI0QzikxHXBN_HiKX2P5-17" value="POD" style="rounded=0;whiteSpace=wrap;html=1;horizontal=0;fontSize=16;fontStyle=1;strokeWidth=4;fillColor=#ffe6cc;strokeColor=#d79b00;" parent="1" vertex="1">
          <mxGeometry x="-190" y="-110" width="90" height="240" as="geometry" />
        </mxCell>
        <mxCell id="mXFOX9HHiZyfyobsmAWa-8" style="edgeStyle=orthogonalEdgeStyle;rounded=0;orthogonalLoop=1;jettySize=auto;html=1;entryX=0;entryY=0.5;entryDx=0;entryDy=0;shape=link;strokeWidth=3;" edge="1" parent="1" source="fI0QzikxHXBN_HiKX2P5-18" target="mXFOX9HHiZyfyobsmAWa-3">
          <mxGeometry relative="1" as="geometry" />
        </mxCell>
        <mxCell id="fI0QzikxHXBN_HiKX2P5-18" value="POD" style="rounded=0;whiteSpace=wrap;html=1;horizontal=0;fontSize=16;fontStyle=1;strokeWidth=4;fillColor=#ffe6cc;strokeColor=#d79b00;" parent="1" vertex="1">
          <mxGeometry x="-190" y="510" width="90" height="240" as="geometry" />
        </mxCell>
        <mxCell id="fI0QzikxHXBN_HiKX2P5-37" style="edgeStyle=orthogonalEdgeStyle;shape=connector;rounded=0;orthogonalLoop=1;jettySize=auto;html=1;entryX=1;entryY=0.5;entryDx=0;entryDy=0;strokeColor=default;strokeWidth=3;align=center;verticalAlign=middle;fontFamily=Helvetica;fontSize=16;fontColor=default;fontStyle=1;labelBackgroundColor=default;horizontal=0;endArrow=classic;dashed=1;exitX=0;exitY=0.5;exitDx=0;exitDy=0;" parent="1" source="fI0QzikxHXBN_HiKX2P5-12" target="mXFOX9HHiZyfyobsmAWa-17" edge="1">
          <mxGeometry relative="1" as="geometry">
            <mxPoint x="-680" y="320" as="sourcePoint" />
          </mxGeometry>
        </mxCell>
        <mxCell id="fI0QzikxHXBN_HiKX2P5-29" style="edgeStyle=orthogonalEdgeStyle;shape=connector;rounded=0;orthogonalLoop=1;jettySize=auto;html=1;entryX=0;entryY=0.5;entryDx=0;entryDy=0;strokeColor=default;strokeWidth=3;align=center;verticalAlign=middle;fontFamily=Helvetica;fontSize=16;fontColor=default;fontStyle=1;labelBackgroundColor=default;horizontal=0;endArrow=classic;" parent="1" source="fI0QzikxHXBN_HiKX2P5-30" target="fI0QzikxHXBN_HiKX2P5-33" edge="1">
          <mxGeometry relative="1" as="geometry" />
        </mxCell>
        <mxCell id="fI0QzikxHXBN_HiKX2P5-30" value="NodePort" style="rounded=0;whiteSpace=wrap;html=1;horizontal=0;fontSize=16;fontStyle=1;strokeWidth=4;" parent="1" vertex="1">
          <mxGeometry x="-1193.83" y="200" width="90" height="240" as="geometry" />
        </mxCell>
        <mxCell id="mXFOX9HHiZyfyobsmAWa-18" style="edgeStyle=orthogonalEdgeStyle;rounded=0;orthogonalLoop=1;jettySize=auto;html=1;entryX=0;entryY=0.5;entryDx=0;entryDy=0;shape=link;strokeWidth=3;" edge="1" parent="1" source="fI0QzikxHXBN_HiKX2P5-31" target="mXFOX9HHiZyfyobsmAWa-17">
          <mxGeometry relative="1" as="geometry" />
        </mxCell>
        <mxCell id="fI0QzikxHXBN_HiKX2P5-31" value="POD" style="rounded=0;whiteSpace=wrap;html=1;horizontal=0;fontSize=16;fontStyle=1;strokeWidth=4;fillColor=#d5e8d4;strokeColor=#82b366;" parent="1" vertex="1">
          <mxGeometry x="-873.83" y="200" width="90" height="240" as="geometry" />
        </mxCell>
        <mxCell id="fI0QzikxHXBN_HiKX2P5-32" style="edgeStyle=orthogonalEdgeStyle;shape=connector;rounded=0;orthogonalLoop=1;jettySize=auto;html=1;entryX=0;entryY=0.5;entryDx=0;entryDy=0;strokeColor=default;strokeWidth=3;align=center;verticalAlign=middle;fontFamily=Helvetica;fontSize=16;fontColor=default;fontStyle=1;labelBackgroundColor=default;horizontal=0;endArrow=classic;" parent="1" source="fI0QzikxHXBN_HiKX2P5-33" target="fI0QzikxHXBN_HiKX2P5-31" edge="1">
          <mxGeometry relative="1" as="geometry" />
        </mxCell>
        <mxCell id="fI0QzikxHXBN_HiKX2P5-33" value="Deployment" style="rounded=0;whiteSpace=wrap;html=1;horizontal=0;fontSize=16;fontStyle=1;strokeWidth=4;fillColor=#e1d5e7;strokeColor=#9673a6;" parent="1" vertex="1">
          <mxGeometry x="-1033.83" y="200" width="90" height="240" as="geometry" />
        </mxCell>
        <mxCell id="fI0QzikxHXBN_HiKX2P5-34" style="edgeStyle=orthogonalEdgeStyle;shape=connector;rounded=0;orthogonalLoop=1;jettySize=auto;html=1;entryX=0;entryY=0.5;entryDx=0;entryDy=0;strokeColor=default;strokeWidth=3;align=center;verticalAlign=middle;fontFamily=Helvetica;fontSize=16;fontColor=default;fontStyle=1;labelBackgroundColor=default;horizontal=0;endArrow=classic;" parent="1" target="fI0QzikxHXBN_HiKX2P5-30" edge="1">
          <mxGeometry relative="1" as="geometry">
            <mxPoint x="-1273.83" y="320" as="sourcePoint" />
          </mxGeometry>
        </mxCell>
        <mxCell id="fI0QzikxHXBN_HiKX2P5-38" value="forward port" style="rounded=0;whiteSpace=wrap;html=1;horizontal=0;fontSize=16;fontStyle=1;strokeWidth=4;" parent="1" vertex="1">
          <mxGeometry x="-1363.83" y="200" width="90" height="240" as="geometry" />
        </mxCell>
        <mxCell id="fI0QzikxHXBN_HiKX2P5-43" value="Localhost" style="edgeStyle=orthogonalEdgeStyle;shape=connector;rounded=0;orthogonalLoop=1;jettySize=auto;html=1;entryX=0.5;entryY=1;entryDx=0;entryDy=0;strokeColor=default;strokeWidth=3;align=center;verticalAlign=middle;fontFamily=Helvetica;fontSize=16;fontColor=default;fontStyle=1;labelBackgroundColor=default;horizontal=0;endArrow=classic;" parent="1" source="fI0QzikxHXBN_HiKX2P5-42" target="fI0QzikxHXBN_HiKX2P5-38" edge="1">
          <mxGeometry relative="1" as="geometry" />
        </mxCell>
        <mxCell id="fI0QzikxHXBN_HiKX2P5-42" value="" style="image;points=[];aspect=fixed;html=1;align=center;shadow=0;dashed=0;image=img/lib/allied_telesis/computer_and_terminals/Personal_Computer.svg;rounded=0;strokeColor=default;strokeWidth=4;verticalAlign=middle;fontFamily=Helvetica;fontSize=16;fontColor=default;fontStyle=1;labelBackgroundColor=default;horizontal=0;fillColor=default;" parent="1" vertex="1">
          <mxGeometry x="-1399.99" y="630" width="162.33" height="220" as="geometry" />
        </mxCell>
        <mxCell id="jbF-vzdQm0dqfadRotZ0-1" value="PORT: 3000" style="rounded=0;whiteSpace=wrap;html=1;horizontal=0;fontSize=16;fontStyle=1;strokeWidth=4;fillColor=#dae8fc;strokeColor=#6c8ebf;" parent="1" vertex="1">
          <mxGeometry x="680" y="-110" width="90" height="240" as="geometry" />
        </mxCell>
        <mxCell id="jbF-vzdQm0dqfadRotZ0-4" value="PORT: 3000" style="rounded=0;whiteSpace=wrap;html=1;horizontal=0;fontSize=16;fontStyle=1;strokeWidth=4;fillColor=#dae8fc;strokeColor=#6c8ebf;" parent="1" vertex="1">
          <mxGeometry x="680" y="200" width="90" height="240" as="geometry" />
        </mxCell>
        <mxCell id="jbF-vzdQm0dqfadRotZ0-6" value="PORT: 3000" style="rounded=0;whiteSpace=wrap;html=1;horizontal=0;fontSize=16;fontStyle=1;strokeWidth=4;fillColor=#dae8fc;strokeColor=#6c8ebf;" parent="1" vertex="1">
          <mxGeometry x="680" y="510" width="90" height="240" as="geometry" />
        </mxCell>
        <mxCell id="mXFOX9HHiZyfyobsmAWa-1" value="NGINX: 443" style="rounded=0;whiteSpace=wrap;html=1;horizontal=0;fontSize=16;fontStyle=1;strokeWidth=4;fillColor=#dae8fc;strokeColor=#6c8ebf;" vertex="1" parent="1">
          <mxGeometry x="-40" y="-110" width="90" height="240" as="geometry" />
        </mxCell>
        <mxCell id="mXFOX9HHiZyfyobsmAWa-2" value="NGINX: 443" style="rounded=0;whiteSpace=wrap;html=1;horizontal=0;fontSize=16;fontStyle=1;strokeWidth=4;fillColor=#dae8fc;strokeColor=#6c8ebf;" vertex="1" parent="1">
          <mxGeometry x="-40" y="200" width="90" height="240" as="geometry" />
        </mxCell>
        <mxCell id="mXFOX9HHiZyfyobsmAWa-4" value="" style="edgeStyle=orthogonalEdgeStyle;shape=connector;rounded=0;orthogonalLoop=1;jettySize=auto;html=1;entryX=1;entryY=0.5;entryDx=0;entryDy=0;strokeColor=default;strokeWidth=3;align=center;verticalAlign=middle;fontFamily=Helvetica;fontSize=16;fontColor=default;fontStyle=1;labelBackgroundColor=default;horizontal=0;endArrow=classic;exitX=0.5;exitY=1;exitDx=0;exitDy=0;dashed=1;" edge="1" parent="1" source="fI0QzikxHXBN_HiKX2P5-1" target="mXFOX9HHiZyfyobsmAWa-3">
          <mxGeometry relative="1" as="geometry">
            <mxPoint x="205" y="440" as="sourcePoint" />
            <mxPoint x="-100" y="630" as="targetPoint" />
          </mxGeometry>
        </mxCell>
        <mxCell id="mXFOX9HHiZyfyobsmAWa-3" value="NGINX: 443" style="rounded=0;whiteSpace=wrap;html=1;horizontal=0;fontSize=16;fontStyle=1;strokeWidth=4;fillColor=#dae8fc;strokeColor=#6c8ebf;" vertex="1" parent="1">
          <mxGeometry x="-40" y="510" width="90" height="240" as="geometry" />
        </mxCell>
        <mxCell id="mXFOX9HHiZyfyobsmAWa-17" value="NGINX: 443" style="rounded=0;whiteSpace=wrap;html=1;horizontal=0;fontSize=16;fontStyle=1;strokeWidth=4;fillColor=#dae8fc;strokeColor=#6c8ebf;" vertex="1" parent="1">
          <mxGeometry x="-710" y="200" width="90" height="240" as="geometry" />
        </mxCell>
        <mxCell id="mXFOX9HHiZyfyobsmAWa-20" style="edgeStyle=orthogonalEdgeStyle;rounded=0;orthogonalLoop=1;jettySize=auto;html=1;entryX=0.5;entryY=1;entryDx=0;entryDy=0;fontSize=11;strokeWidth=3;" edge="1" parent="1" source="mXFOX9HHiZyfyobsmAWa-19" target="mXFOX9HHiZyfyobsmAWa-17">
          <mxGeometry relative="1" as="geometry" />
        </mxCell>
        <mxCell id="mXFOX9HHiZyfyobsmAWa-19" value="SSL" style="ellipse;whiteSpace=wrap;html=1;aspect=fixed;strokeWidth=3;fontStyle=1;fontSize=16;" vertex="1" parent="1">
          <mxGeometry x="-705" y="500" width="80" height="80" as="geometry" />
        </mxCell>
        <mxCell id="mXFOX9HHiZyfyobsmAWa-21" style="edgeStyle=orthogonalEdgeStyle;rounded=0;orthogonalLoop=1;jettySize=auto;html=1;entryX=0.5;entryY=1;entryDx=0;entryDy=0;fontSize=11;strokeWidth=3;" edge="1" parent="1" source="mXFOX9HHiZyfyobsmAWa-22">
          <mxGeometry relative="1" as="geometry">
            <mxPoint x="5" y="750" as="targetPoint" />
          </mxGeometry>
        </mxCell>
        <mxCell id="mXFOX9HHiZyfyobsmAWa-23" style="edgeStyle=orthogonalEdgeStyle;rounded=0;orthogonalLoop=1;jettySize=auto;html=1;entryX=1;entryY=0.75;entryDx=0;entryDy=0;strokeWidth=2;" edge="1" parent="1" source="mXFOX9HHiZyfyobsmAWa-22" target="mXFOX9HHiZyfyobsmAWa-2">
          <mxGeometry relative="1" as="geometry">
            <Array as="points">
              <mxPoint x="90" y="850" />
              <mxPoint x="90" y="380" />
            </Array>
          </mxGeometry>
        </mxCell>
        <mxCell id="mXFOX9HHiZyfyobsmAWa-24" style="edgeStyle=orthogonalEdgeStyle;rounded=0;orthogonalLoop=1;jettySize=auto;html=1;entryX=0.5;entryY=0;entryDx=0;entryDy=0;strokeWidth=2;" edge="1" parent="1" source="mXFOX9HHiZyfyobsmAWa-22" target="mXFOX9HHiZyfyobsmAWa-1">
          <mxGeometry relative="1" as="geometry">
            <Array as="points">
              <mxPoint x="5" y="920" />
              <mxPoint x="120" y="920" />
              <mxPoint x="120" y="-130" />
              <mxPoint x="5" y="-130" />
            </Array>
          </mxGeometry>
        </mxCell>
        <mxCell id="mXFOX9HHiZyfyobsmAWa-22" value="SSL" style="ellipse;whiteSpace=wrap;html=1;aspect=fixed;strokeWidth=3;fontStyle=1;fontSize=16;" vertex="1" parent="1">
          <mxGeometry x="-35" y="810" width="80" height="80" as="geometry" />
        </mxCell>
        <mxCell id="mXFOX9HHiZyfyobsmAWa-29" value="&lt;b&gt;LOCALHOST&lt;/b&gt;" style="text;html=1;align=center;verticalAlign=middle;whiteSpace=wrap;rounded=0;fontSize=20;" vertex="1" parent="1">
          <mxGeometry x="-1148.83" y="880" width="320" height="30" as="geometry" />
        </mxCell>
        <mxCell id="mXFOX9HHiZyfyobsmAWa-30" value="&lt;b&gt;NGINX LB&lt;/b&gt;" style="text;html=1;align=center;verticalAlign=middle;whiteSpace=wrap;rounded=0;fontSize=20;" vertex="1" parent="1">
          <mxGeometry x="-490" y="880" width="320" height="30" as="geometry" />
        </mxCell>
        <mxCell id="mXFOX9HHiZyfyobsmAWa-32" value="&lt;b&gt;APP LB&lt;/b&gt;" style="text;html=1;align=center;verticalAlign=middle;whiteSpace=wrap;rounded=0;fontSize=20;" vertex="1" parent="1">
          <mxGeometry x="250" y="880" width="320" height="30" as="geometry" />
        </mxCell>
      </root>
    </mxGraphModel>
  </diagram>
</mxfile>
